<svg version="1.1" xmlns="http://www.w3.org/2000/svg" width="100px" height="100px" transform="rotate(0) scale(1, 1)">
<path d="M0 0 C4.74109402 0.16805275 6.86953029 2.40007091 10.08203125 5.69140625 C10.54107346 6.15610825 11.00011566 6.62081024 11.47306824 7.09959412 C12.92924735 8.57806683 14.37085904 10.06986157 15.8125 11.5625 C16.80050098 12.57057507 17.78942404 13.5777473 18.77929688 14.58398438 C21.19696393 17.04562454 23.60176584 19.51940673 26 22 C29.6760626 20.47184344 31.87700182 18.27551649 34.58984375 15.39453125 C35.45673828 14.49412109 36.32363281 13.59371094 37.21679688 12.66601562 C39.03460718 10.75946799 40.84449891 8.84533966 42.64648438 6.92382812 C43.51466797 6.02728516 44.38285156 5.13074219 45.27734375 4.20703125 C46.06359131 3.3766333 46.84983887 2.54623535 47.65991211 1.69067383 C50 0 50 0 52.67016602 0.11206055 C55 1 55 1 57 3 C56.83194725 7.74109402 54.59992909 9.86953029 51.30859375 13.08203125 C50.84389175 13.54107346 50.37918976 14.00011566 49.90040588 14.47306824 C48.42193317 15.92924735 46.93013843 17.37085904 45.4375 18.8125 C44.42942493 19.80050098 43.4222527 20.78942404 42.41601562 21.77929688 C39.95437546 24.19696393 37.48059327 26.60176584 35 29 C36.52815656 32.6760626 38.72448351 34.87700182 41.60546875 37.58984375 C42.50587891 38.45673828 43.40628906 39.32363281 44.33398438 40.21679688 C46.24053201 42.03460718 48.15466034 43.84449891 50.07617188 45.64648438 C50.97271484 46.51466797 51.86925781 47.38285156 52.79296875 48.27734375 C54.03856567 49.45671509 54.03856567 49.45671509 55.30932617 50.65991211 C57 53 57 53 56.88793945 55.67016602 C56 58 56 58 54 60 C49.25890598 59.83194725 47.13046971 57.59992909 43.91796875 54.30859375 C43.45892654 53.84389175 42.99988434 53.37918976 42.52693176 52.90040588 C41.07075265 51.42193317 39.62914096 49.93013843 38.1875 48.4375 C37.19949902 47.42942493 36.21057596 46.4222527 35.22070312 45.41601562 C32.80303607 42.95437546 30.39823416 40.48059327 28 38 C24.3239374 39.52815656 22.12299818 41.72448351 19.41015625 44.60546875 C18.54326172 45.50587891 17.67636719 46.40628906 16.78320312 47.33398438 C14.96539282 49.24053201 13.15550109 51.15466034 11.35351562 53.07617188 C10.48533203 53.97271484 9.61714844 54.86925781 8.72265625 55.79296875 C7.54328491 57.03856567 7.54328491 57.03856567 6.34008789 58.30932617 C4 60 4 60 1.32983398 59.88793945 C-1 59 -1 59 -3 57 C-2.83194725 52.25890598 -0.59992909 50.13046971 2.69140625 46.91796875 C3.38845924 46.22940544 3.38845924 46.22940544 4.09959412 45.52693176 C5.57806683 44.07075265 7.06986157 42.62914096 8.5625 41.1875 C9.57057507 40.19949902 10.5777473 39.21057596 11.58398438 38.22070312 C14.04562454 35.80303607 16.51940673 33.39823416 19 31 C17.47184344 27.3239374 15.27551649 25.12299818 12.39453125 22.41015625 C11.04391602 21.10981445 11.04391602 21.10981445 9.66601562 19.78320312 C7.75946799 17.96539282 5.84533966 16.15550109 3.92382812 14.35351562 C3.02728516 13.48533203 2.13074219 12.61714844 1.20703125 11.72265625 C0.3766333 10.93640869 -0.45376465 10.15016113 -1.30932617 9.34008789 C-3 7 -3 7 -2.88793945 4.32983398 C-2 2 -2 2 0 0 Z " fill="#ffffff" transform="translate(23,20)"/>
</svg>